<?xml version="1.0" encoding="iso-8859-1"?>
<!-- Generator: Adobe Illustrator 17.1.0, SVG Export Plug-In . SVG Version: 6.00 Build 0)  -->
<!DOCTYPE svg PUBLIC "-//W3C//DTD SVG 1.1//EN" "http://www.w3.org/Graphics/SVG/1.1/DTD/svg11.dtd">
<svg version="1.1" id="Capa_1" xmlns="http://www.w3.org/2000/svg" xmlns:xlink="http://www.w3.org/1999/xlink" x="0px" y="0px"
	 viewBox="0 0 512 512" style="enable-background:new 0 0 512 512;" xml:space="preserve">
<g>
	<path d="M424,56h-97.814C318.888,23.977,290.201,0,256,0s-62.888,23.977-70.186,56H88c-13.234,0-24,10.766-24,24v72
		c0,13.234,10.766,24,24,24h8v320h-8c-4.418,0-8,3.582-8,8s3.582,8,8,8h336c4.418,0,8-3.582,8-8s-3.582-8-8-8h-8V176h8
		c13.234,0,24-10.766,24-24V80C448,66.766,437.234,56,424,56z M256,16c30.878,0,56,25.122,56,56s-25.122,56-56,56s-56-25.122-56-56
		S225.122,16,256,16z M400,496H112V176h16v168c0,13.234,10.766,24,24,24h208c13.234,0,24-10.766,24-24V176h16V496z M208,176v176h-56
		c-4.411,0-8-3.589-8-8V176H208z M288,176v64h-64v-64H288z M368,176v168c0,4.411-3.589,8-8,8h-56V176H368z M224,352v-16h64v16H224z
		 M288,320h-64v-64h64V320z M432,152c0,4.411-3.589,8-8,8H88c-4.411,0-8-3.589-8-8V80c0-4.411,3.589-8,8-8h96
		c0,39.701,32.299,72,72,72s72-32.299,72-72h96c4.411,0,8,3.589,8,8V152z"/>
	<path d="M213.088,69.657l45.255,45.255c1.562,1.562,3.609,2.343,5.657,2.343s4.095-0.781,5.657-2.343l8.971-8.971
		c1.5-1.5,2.343-3.535,2.343-5.657c0-2.122-0.843-4.157-2.344-5.657c1.5,1.5,3.535,2.344,5.657,2.344h0
		c2.122,0,4.157-0.843,5.657-2.343l8.971-8.971c3.125-3.124,3.125-8.189,0-11.313l-45.255-45.255c-3.124-3.124-8.189-3.124-11.313,0
		l-8.971,8.971c-3.125,3.124-3.124,8.189,0,11.313c-3.124-3.124-8.189-3.124-11.313,0l-8.971,8.971
		C209.964,61.467,209.964,66.533,213.088,69.657z M233.373,65.373c4.274,0,8.292-1.665,11.313-4.686
		c3.022-3.022,4.687-7.04,4.687-11.314c0-0.699-0.044-1.392-0.132-2.074l31.46,31.461c-0.682-0.088-1.374-0.132-2.073-0.132
		c-4.274,0-8.292,1.665-11.313,4.686c-3.022,3.022-4.687,7.04-4.687,11.314c0,0.699,0.044,1.391,0.132,2.073l-31.461-31.46
		C231.981,65.328,232.673,65.373,233.373,65.373z"/>
	<path d="M240,312h32c4.418,0,8-3.582,8-8v-32c0-4.418-3.582-8-8-8h-32c-4.418,0-8,3.582-8,8v32C232,308.418,235.582,312,240,312z
		 M248,280h16v16h-16V280z"/>
	<path d="M304,384h-96c-4.418,0-8,3.582-8,8s3.582,8,8,8h96c4.418,0,8-3.582,8-8S308.418,384,304,384z"/>
</g>
<g>
</g>
<g>
</g>
<g>
</g>
<g>
</g>
<g>
</g>
<g>
</g>
<g>
</g>
<g>
</g>
<g>
</g>
<g>
</g>
<g>
</g>
<g>
</g>
<g>
</g>
<g>
</g>
<g>
</g>
</svg>
